<svg xmlns="http://www.w3.org/2000/svg" viewBox="0 0 64 64" role="img" aria-labelledby="title desc">
  <title id="title">Brain Care Score Test logo</title>
  <desc id="desc">A simple brain care mark with connected nodes and a leaf.</desc>
  <rect width="64" height="64" rx="16" fill="#155e75"/>
  <path d="M22 39c-6.1-1.2-10-5.3-10-11.2 0-6.2 4.6-11 10.8-11.3 2.3-4.5 7.1-7.1 12.3-6.2 5.4.9 9.4 5.1 10.3 10.4 4.2 1.4 6.9 5.2 6.9 9.7 0 5.9-4.8 10.6-10.8 10.6h-4.2" fill="none" stroke="#f8fcfa" stroke-width="4" stroke-linecap="round" stroke-linejoin="round"/>
  <path d="M24 26h9l6 6h7" fill="none" stroke="#9ee6c5" stroke-width="3.4" stroke-linecap="round" stroke-linejoin="round"/>
  <circle cx="24" cy="26" r="3.4" fill="#9ee6c5"/>
  <circle cx="33" cy="26" r="3.4" fill="#9ee6c5"/>
  <circle cx="39" cy="32" r="3.4" fill="#9ee6c5"/>
  <path d="M25 48c9.5-1 16-5.8 19.5-14.5 2.9 9.2-2.4 16.5-10.5 18.2-3.7.8-6.8-.2-9-3.7Z" fill="#f8fcfa"/>
  <path d="M30 47c4-1.8 7.4-4.5 10.2-8" fill="none" stroke="#155e75" stroke-width="2.4" stroke-linecap="round"/>
</svg>
